<?xml version="1.0" encoding="utf-8"?>
<!-- Generator: Adobe Illustrator 24.1.2, SVG Export Plug-In . SVG Version: 6.00 Build 0)  -->
<svg version="1.1" id="Layer_1" xmlns="http://www.w3.org/2000/svg" xmlns:xlink="http://www.w3.org/1999/xlink" x="0px" y="0px"
	 viewBox="0 0 91 94" style="enable-background:new 0 0 91 94;" xml:space="preserve">
<style type="text/css">
	.st0{fill:#FFFFFF;}
	.st1{fill:#3B4D81;}
	.st2{fill:#FFD105;}
	.st3{fill:#D71920;}
</style>
<rect x="-0.3" y="0.4" width="71" height="28"/>
<g>
	<path class="st0" d="M9,7.6c1.8,0,3.3,0.6,4.5,1.8c1.3,1.2,1.9,2.8,1.9,4.9c0,2-0.6,3.7-1.9,4.9c-1.2,1.3-2.7,1.9-4.3,1.9
		S6,20.4,4.7,19v6.8H1.9V7.8h2.8v2.3C5.8,8.5,7.2,7.6,9,7.6z M4.6,14.4c0,1.3,0.4,2.3,1.1,3.1c0.8,0.8,1.7,1.2,2.8,1.2
		c1.1,0,2-0.4,2.8-1.2c0.8-0.8,1.2-1.8,1.2-3.1c0-1.3-0.4-2.3-1.2-3.1c-0.8-0.8-1.7-1.2-2.8-1.2c-1.1,0-2,0.4-2.8,1.2
		C5,12.1,4.6,13.2,4.6,14.4z"/>
	<path class="st0" d="M29.1,21h-2.5v-1.8c-1.1,1.3-2.5,2-4.4,2c-1.4,0-2.5-0.4-3.4-1.2c-0.9-0.8-1.3-1.8-1.3-3.1
		c0-1.3,0.5-2.3,1.4-2.9c1-0.6,2.2-1,3.9-1h3.6v-0.5c0-1.7-1-2.6-2.9-2.6c-1.2,0-2.5,0.4-3.8,1.3l-1.2-1.7c1.6-1.3,3.4-1.9,5.4-1.9
		c1.5,0,2.8,0.4,3.8,1.2c1,0.8,1.5,2,1.5,3.7V21z M26.4,16.1V15h-3.1c-2,0-3,0.6-3,1.9c0,0.6,0.2,1.1,0.7,1.5
		c0.5,0.3,1.2,0.5,2.1,0.5c0.9,0,1.6-0.2,2.3-0.7C26.1,17.6,26.4,16.9,26.4,16.1z"/>
	<path class="st0" d="M35.8,13.9V21H33V7.8h2.8v2.4c0.4-0.8,1.1-1.4,1.8-1.9c0.8-0.5,1.6-0.7,2.5-0.7c1.5,0,2.7,0.5,3.6,1.4
		c0.9,0.9,1.4,2.2,1.4,3.9v8h-2.8v-7.2c0-2.4-1-3.6-3-3.6c-1,0-1.8,0.3-2.5,1C36.1,11.7,35.8,12.6,35.8,13.9z"/>
	<path class="st0" d="M49.1,5.2c-0.3-0.3-0.5-0.8-0.5-1.2s0.2-0.9,0.5-1.2c0.3-0.3,0.8-0.5,1.2-0.5c0.5,0,0.9,0.2,1.2,0.5
		c0.3,0.3,0.5,0.8,0.5,1.2s-0.2,0.9-0.5,1.2c-0.3,0.3-0.8,0.5-1.2,0.5C49.9,5.7,49.5,5.6,49.1,5.2z M51.7,21h-2.8V7.8h2.8V21z"/>
	<path class="st0" d="M67.9,15.6H57.6c0.1,1,0.5,1.7,1.3,2.3c0.8,0.6,1.7,0.9,2.8,0.9c1.6,0,2.9-0.5,3.8-1.6L67,19
		c-1.4,1.5-3.3,2.2-5.5,2.2c-1.8,0-3.4-0.6-4.7-1.8c-1.3-1.2-1.9-2.9-1.9-4.9c0-2.1,0.7-3.7,2-4.9c1.3-1.2,2.9-1.8,4.7-1.8
		c1.8,0,3.3,0.5,4.6,1.6c1.3,1.1,1.9,2.6,1.9,4.5V15.6z M57.6,13.4h7.5c0-1.1-0.3-2-1-2.5c-0.7-0.6-1.5-0.9-2.6-0.9
		c-1,0-1.9,0.3-2.7,0.9C58,11.6,57.6,12.4,57.6,13.4z"/>
</g>
<rect x="-0.3" y="33.4" width="85" height="28"/>
<g>
	<path class="st0" d="M4.7,54H1.9V35.6h2.8v10.8l5.3-5.6h3.6l-5,5.2l5.4,7.9h-3.4l-3.9-5.8l-2,2V54z"/>
	<path class="st0" d="M26.6,52.2c-1.3,1.3-3,2-4.9,2c-2,0-3.6-0.7-4.9-2c-1.3-1.3-2-2.9-2-4.8c0-1.9,0.7-3.5,2-4.8
		c1.3-1.3,3-2,4.9-2c2,0,3.6,0.7,4.9,2c1.3,1.3,2,2.9,2,4.8C28.6,49.3,27.9,50.9,26.6,52.2z M18.7,50.5c0.8,0.8,1.8,1.2,3,1.2
		c1.2,0,2.2-0.4,3-1.2c0.8-0.8,1.2-1.8,1.2-3.1c0-1.3-0.4-2.3-1.2-3.1c-0.8-0.8-1.8-1.2-3-1.2c-1.2,0-2.2,0.4-3,1.2
		c-0.8,0.8-1.2,1.8-1.2,3.1C17.5,48.7,17.9,49.7,18.7,50.5z"/>
	<path class="st0" d="M34.5,54h-2.8V35.6h2.8V54z"/>
	<path class="st0" d="M50.7,48.6H40.4c0.1,1,0.5,1.7,1.3,2.3c0.8,0.6,1.7,0.9,2.8,0.9c1.6,0,2.9-0.5,3.8-1.6l1.6,1.7
		c-1.4,1.5-3.3,2.2-5.5,2.2c-1.8,0-3.4-0.6-4.7-1.8c-1.3-1.2-1.9-2.9-1.9-4.9c0-2.1,0.7-3.7,2-4.9c1.3-1.2,2.9-1.8,4.7-1.8
		s3.3,0.5,4.6,1.6c1.3,1.1,1.9,2.6,1.9,4.5V48.6z M40.4,46.4H48c0-1.1-0.3-2-1-2.5c-0.7-0.6-1.5-0.9-2.6-0.9c-1,0-1.9,0.3-2.7,0.9
		C40.8,44.5,40.4,45.4,40.4,46.4z"/>
	<path class="st0" d="M65.9,40.8v11.5c0,2.3-0.6,4.1-1.9,5.2c-1.3,1.2-2.9,1.7-4.9,1.7s-3.8-0.6-5.4-1.9l1.3-2.1
		c1.3,1,2.6,1.5,3.9,1.5c1.3,0,2.3-0.3,3.1-1c0.8-0.7,1.1-1.8,1.1-3.2v-1.7c-0.4,0.8-1,1.4-1.8,1.9c-0.8,0.5-1.6,0.7-2.6,0.7
		c-1.7,0-3.2-0.6-4.3-1.8c-1.1-1.2-1.7-2.7-1.7-4.5c0-1.8,0.6-3.3,1.7-4.5c1.1-1.2,2.5-1.8,4.3-1.8c1.7,0,3.1,0.7,4.2,2.1v-2H65.9z
		 M55.7,46.9c0,1.1,0.3,2,1,2.8c0.7,0.8,1.6,1.2,2.7,1.2c1.1,0,2-0.4,2.7-1.1c0.7-0.8,1-1.7,1-2.8c0-1.1-0.4-2.1-1.1-2.9
		c-0.7-0.8-1.6-1.2-2.7-1.2c-1.1,0-2,0.4-2.7,1.2C56,44.9,55.7,45.8,55.7,46.9z"/>
	<path class="st0" d="M80.9,52.2c-1.3,1.3-3,2-4.9,2c-2,0-3.6-0.7-4.9-2c-1.3-1.3-2-2.9-2-4.8c0-1.9,0.7-3.5,2-4.8
		c1.3-1.3,3-2,4.9-2c2,0,3.6,0.7,4.9,2c1.3,1.3,2,2.9,2,4.8C82.9,49.3,82.2,50.9,80.9,52.2z M73,50.5c0.8,0.8,1.8,1.2,3,1.2
		c1.2,0,2.2-0.4,3-1.2c0.8-0.8,1.2-1.8,1.2-3.1c0-1.3-0.4-2.3-1.2-3.1c-0.8-0.8-1.8-1.2-3-1.2c-1.2,0-2.2,0.4-3,1.2
		c-0.8,0.8-1.2,1.8-1.2,3.1C71.8,48.7,72.2,49.7,73,50.5z"/>
</g>
<rect x="-0.3" y="66.4" width="91" height="28"/>
<g>
	<path class="st0" d="M8.7,73.4c1.8,0,3.3,0.6,4.5,1.8c1.3,1.2,1.9,2.8,1.9,4.9c0,2-0.6,3.7-1.9,4.9C12,86.3,10.5,87,8.9,87
		s-3.1-0.7-4.5-2.2v6.8H1.6V73.6h2.8v2.3C5.5,74.3,6.9,73.4,8.7,73.4z M4.4,80.2c0,1.3,0.4,2.3,1.1,3.1c0.8,0.8,1.7,1.2,2.8,1.2
		c1.1,0,2-0.4,2.8-1.2c0.8-0.8,1.2-1.8,1.2-3.1c0-1.3-0.4-2.3-1.2-3.1c-0.8-0.8-1.7-1.2-2.8-1.2c-1.1,0-2,0.4-2.8,1.2
		C4.7,77.9,4.4,79,4.4,80.2z"/>
	<path class="st0" d="M25.1,76.2c-1.4,0-2.4,0.4-3.1,1.3c-0.7,0.9-1,2.1-1,3.6v5.6h-2.8V73.6H21v2.6c0.4-0.8,1-1.5,1.8-2
		c0.8-0.5,1.6-0.8,2.4-0.8l0,2.8C25.2,76.2,25.2,76.2,25.1,76.2z"/>
	<path class="st0" d="M38.8,85c-1.3,1.3-3,2-4.9,2c-2,0-3.6-0.7-4.9-2c-1.3-1.3-2-2.9-2-4.8c0-1.9,0.7-3.5,2-4.8c1.3-1.3,3-2,4.9-2
		c2,0,3.6,0.7,4.9,2c1.3,1.3,2,2.9,2,4.8C40.7,82.1,40.1,83.7,38.8,85z M30.9,83.3c0.8,0.8,1.8,1.2,3,1.2c1.2,0,2.2-0.4,3-1.2
		c0.8-0.8,1.2-1.8,1.2-3.1c0-1.3-0.4-2.3-1.2-3.1c-0.8-0.8-1.8-1.2-3-1.2c-1.2,0-2.2,0.4-3,1.2c-0.8,0.8-1.2,1.8-1.2,3.1
		C29.7,81.5,30.1,82.5,30.9,83.3z"/>
	<path class="st0" d="M43.9,87.4V73.6h2.8v13.9c0,1.4-0.4,2.5-1.2,3.3c-0.8,0.8-1.8,1.2-3,1.2c-1.2,0-2.3-0.4-3.2-1.3l1.3-2.1
		c0.6,0.5,1.1,0.8,1.7,0.8c0.6,0,1-0.2,1.3-0.5C43.7,88.5,43.9,88,43.9,87.4z M44,71c-0.3-0.3-0.5-0.8-0.5-1.2
		c0-0.5,0.2-0.9,0.5-1.2c0.3-0.3,0.8-0.5,1.2-0.5c0.5,0,0.9,0.2,1.2,0.5c0.3,0.3,0.5,0.8,0.5,1.2c0,0.5-0.2,0.9-0.5,1.2
		c-0.3,0.3-0.8,0.5-1.2,0.5C44.8,71.5,44.3,71.3,44,71z"/>
	<path class="st0" d="M62.9,81.4H52.6c0.1,1,0.5,1.7,1.3,2.3c0.8,0.6,1.7,0.9,2.8,0.9c1.6,0,2.9-0.5,3.8-1.6l1.6,1.7
		c-1.4,1.5-3.3,2.2-5.5,2.2c-1.8,0-3.4-0.6-4.7-1.8c-1.3-1.2-1.9-2.9-1.9-4.9c0-2.1,0.7-3.7,2-4.9c1.3-1.2,2.9-1.8,4.7-1.8
		c1.8,0,3.3,0.5,4.6,1.6c1.3,1.1,1.9,2.6,1.9,4.5V81.4z M52.6,79.2h7.5c0-1.1-0.3-2-1-2.5c-0.7-0.6-1.5-0.9-2.6-0.9
		c-1,0-1.9,0.3-2.7,0.9C53,77.3,52.6,78.2,52.6,79.2z"/>
	<path class="st0" d="M68.7,86.8h-2.8V68.4h2.8v10.8l5.3-5.6h3.6l-5,5.2l5.4,7.9h-3.4L70.7,81l-2,2V86.8z"/>
	<path class="st0" d="M83.7,75.8v6.7c0,0.6,0.2,1.1,0.5,1.5c0.3,0.4,0.8,0.6,1.4,0.6c0.6,0,1.2-0.3,1.7-0.9l1.1,2
		c-1,0.9-2,1.3-3.2,1.3c-1.2,0-2.2-0.4-3-1.2c-0.8-0.8-1.2-1.9-1.2-3.3v-6.6h-1.7v-2.2h1.7v-4.1h2.8v4.1h3.5v2.2H83.7z"/>
</g>
</svg>
