<?xml version="1.0" encoding="utf-8"?>
<!-- Generator: Adobe Illustrator 24.1.2, SVG Export Plug-In . SVG Version: 6.00 Build 0)  -->
<svg version="1.1" id="Layer_1" xmlns="http://www.w3.org/2000/svg" xmlns:xlink="http://www.w3.org/1999/xlink" x="0px" y="0px"
	 viewBox="0 0 180 180" style="enable-background:new 0 0 180 180;" xml:space="preserve">
<style type="text/css">
	.st0{fill:#FFFFFF;}
	.st1{fill:#3B4D81;}
	.st2{fill:#FFD105;}
	.st3{fill:#D71920;}
</style>
<rect x="44.7" y="43.4" width="71" height="28"/>
<g>
	<path class="st0" d="M54,50.6c1.8,0,3.3,0.6,4.5,1.8c1.3,1.2,1.9,2.8,1.9,4.9c0,2-0.6,3.7-1.9,4.9c-1.2,1.3-2.7,1.9-4.3,1.9
		S51,63.4,49.7,62v6.8h-2.8V50.8h2.8v2.3C50.8,51.5,52.2,50.6,54,50.6z M49.6,57.4c0,1.3,0.4,2.3,1.1,3.1c0.8,0.8,1.7,1.2,2.8,1.2
		c1.1,0,2-0.4,2.8-1.2c0.8-0.8,1.2-1.8,1.2-3.1c0-1.3-0.4-2.3-1.2-3.1c-0.8-0.8-1.7-1.2-2.8-1.2c-1.1,0-2,0.4-2.8,1.2
		C50,55.1,49.6,56.2,49.6,57.4z"/>
	<path class="st0" d="M74.1,64h-2.5v-1.8c-1.1,1.3-2.5,2-4.4,2c-1.4,0-2.5-0.4-3.4-1.2c-0.9-0.8-1.3-1.8-1.3-3.1
		c0-1.3,0.5-2.3,1.4-2.9c1-0.6,2.2-1,3.9-1h3.6v-0.5c0-1.7-1-2.6-2.9-2.6c-1.2,0-2.5,0.4-3.8,1.3l-1.2-1.7c1.6-1.3,3.4-1.9,5.4-1.9
		c1.5,0,2.8,0.4,3.8,1.2c1,0.8,1.5,2,1.5,3.7V64z M71.4,59.1V58h-3.1c-2,0-3,0.6-3,1.9c0,0.6,0.2,1.1,0.7,1.5
		c0.5,0.3,1.2,0.5,2.1,0.5c0.9,0,1.6-0.2,2.3-0.7C71.1,60.6,71.4,59.9,71.4,59.1z"/>
	<path class="st0" d="M80.8,56.9V64H78V50.8h2.8v2.4c0.4-0.8,1.1-1.4,1.8-1.9c0.8-0.5,1.6-0.7,2.5-0.7c1.5,0,2.7,0.5,3.6,1.4
		c0.9,0.9,1.4,2.2,1.4,3.9v8h-2.8v-7.2c0-2.4-1-3.6-3-3.6c-1,0-1.8,0.3-2.5,1C81.1,54.7,80.8,55.6,80.8,56.9z"/>
	<path class="st0" d="M94.1,48.2c-0.3-0.3-0.5-0.8-0.5-1.2s0.2-0.9,0.5-1.2c0.3-0.3,0.8-0.5,1.2-0.5c0.5,0,0.9,0.2,1.2,0.5
		c0.3,0.3,0.5,0.8,0.5,1.2s-0.2,0.9-0.5,1.2c-0.3,0.3-0.8,0.5-1.2,0.5C94.9,48.7,94.5,48.6,94.1,48.2z M96.7,64h-2.8V50.8h2.8V64z"
		/>
	<path class="st0" d="M112.9,58.6h-10.3c0.1,1,0.5,1.7,1.3,2.3c0.8,0.6,1.7,0.9,2.8,0.9c1.6,0,2.9-0.5,3.8-1.6L112,62
		c-1.4,1.5-3.3,2.2-5.5,2.2c-1.8,0-3.4-0.6-4.7-1.8c-1.3-1.2-1.9-2.9-1.9-4.9c0-2.1,0.7-3.7,2-4.9c1.3-1.2,2.9-1.8,4.7-1.8
		c1.8,0,3.3,0.5,4.6,1.6c1.3,1.1,1.9,2.6,1.9,4.5V58.6z M102.6,56.4h7.5c0-1.1-0.3-2-1-2.5c-0.7-0.6-1.5-0.9-2.6-0.9
		c-1,0-1.9,0.3-2.7,0.9C103,54.6,102.6,55.4,102.6,56.4z"/>
</g>
<rect x="44.7" y="76.4" width="85" height="28"/>
<g>
	<path class="st0" d="M49.7,97h-2.8V78.6h2.8v10.8l5.3-5.6h3.6l-5,5.2l5.4,7.9h-3.4l-3.9-5.8l-2,2V97z"/>
	<path class="st0" d="M71.6,95.2c-1.3,1.3-3,2-4.9,2c-2,0-3.6-0.7-4.9-2c-1.3-1.3-2-2.9-2-4.8c0-1.9,0.7-3.5,2-4.8
		c1.3-1.3,3-2,4.9-2c2,0,3.6,0.7,4.9,2c1.3,1.3,2,2.9,2,4.8C73.6,92.3,72.9,93.9,71.6,95.2z M63.7,93.5c0.8,0.8,1.8,1.2,3,1.2
		c1.2,0,2.2-0.4,3-1.2c0.8-0.8,1.2-1.8,1.2-3.1c0-1.3-0.4-2.3-1.2-3.1c-0.8-0.8-1.8-1.2-3-1.2c-1.2,0-2.2,0.4-3,1.2
		c-0.8,0.8-1.2,1.8-1.2,3.1C62.5,91.7,62.9,92.7,63.7,93.5z"/>
	<path class="st0" d="M79.5,97h-2.8V78.6h2.8V97z"/>
	<path class="st0" d="M95.7,91.6H85.4c0.1,1,0.5,1.7,1.3,2.3c0.8,0.6,1.7,0.9,2.8,0.9c1.6,0,2.9-0.5,3.8-1.6l1.6,1.7
		c-1.4,1.5-3.3,2.2-5.5,2.2c-1.8,0-3.4-0.6-4.7-1.8c-1.3-1.2-1.9-2.9-1.9-4.9c0-2.1,0.7-3.7,2-4.9c1.3-1.2,2.9-1.8,4.7-1.8
		s3.3,0.5,4.6,1.6c1.3,1.1,1.9,2.6,1.9,4.5V91.6z M85.4,89.4H93c0-1.1-0.3-2-1-2.5c-0.7-0.6-1.5-0.9-2.6-0.9c-1,0-1.9,0.3-2.7,0.9
		C85.8,87.5,85.4,88.4,85.4,89.4z"/>
	<path class="st0" d="M110.9,83.8v11.5c0,2.3-0.6,4.1-1.9,5.2c-1.3,1.2-2.9,1.7-4.9,1.7s-3.8-0.6-5.4-1.9l1.3-2.1
		c1.3,1,2.6,1.5,3.9,1.5c1.3,0,2.3-0.3,3.1-1c0.8-0.7,1.1-1.8,1.1-3.2v-1.7c-0.4,0.8-1,1.4-1.8,1.9c-0.8,0.5-1.6,0.7-2.6,0.7
		c-1.7,0-3.2-0.6-4.3-1.8c-1.1-1.2-1.7-2.7-1.7-4.5c0-1.8,0.6-3.3,1.7-4.5c1.1-1.2,2.5-1.8,4.3-1.8c1.7,0,3.1,0.7,4.2,2.1v-2H110.9z
		 M100.7,89.9c0,1.1,0.3,2,1,2.8c0.7,0.8,1.6,1.2,2.7,1.2c1.1,0,2-0.4,2.7-1.1c0.7-0.8,1-1.7,1-2.8c0-1.1-0.4-2.1-1.1-2.9
		c-0.7-0.8-1.6-1.2-2.7-1.2c-1.1,0-2,0.4-2.7,1.2C101,87.9,100.7,88.8,100.7,89.9z"/>
	<path class="st0" d="M125.9,95.2c-1.3,1.3-3,2-4.9,2c-2,0-3.6-0.7-4.9-2c-1.3-1.3-2-2.9-2-4.8c0-1.9,0.7-3.5,2-4.8
		c1.3-1.3,3-2,4.9-2c2,0,3.6,0.7,4.9,2c1.3,1.3,2,2.9,2,4.8C127.9,92.3,127.2,93.9,125.9,95.2z M118,93.5c0.8,0.8,1.8,1.2,3,1.2
		c1.2,0,2.2-0.4,3-1.2c0.8-0.8,1.2-1.8,1.2-3.1c0-1.3-0.4-2.3-1.2-3.1c-0.8-0.8-1.8-1.2-3-1.2c-1.2,0-2.2,0.4-3,1.2
		c-0.8,0.8-1.2,1.8-1.2,3.1C116.8,91.7,117.2,92.7,118,93.5z"/>
</g>
<rect x="44.7" y="109.4" width="91" height="28"/>
<g>
	<path class="st0" d="M53.7,116.4c1.8,0,3.3,0.6,4.5,1.8c1.3,1.2,1.9,2.8,1.9,4.9c0,2-0.6,3.7-1.9,4.9c-1.2,1.3-2.7,1.9-4.3,1.9
		s-3.1-0.7-4.5-2.2v6.8h-2.8v-17.9h2.8v2.3C50.5,117.3,51.9,116.4,53.7,116.4z M49.4,123.2c0,1.3,0.4,2.3,1.1,3.1
		c0.8,0.8,1.7,1.2,2.8,1.2c1.1,0,2-0.4,2.8-1.2c0.8-0.8,1.2-1.8,1.2-3.1c0-1.3-0.4-2.3-1.2-3.1c-0.8-0.8-1.7-1.2-2.8-1.2
		c-1.1,0-2,0.4-2.8,1.2C49.7,120.9,49.4,122,49.4,123.2z"/>
	<path class="st0" d="M70.1,119.2c-1.4,0-2.4,0.4-3.1,1.3c-0.7,0.9-1,2.1-1,3.6v5.6h-2.8v-13.1H66v2.6c0.4-0.8,1-1.5,1.8-2
		c0.8-0.5,1.6-0.8,2.4-0.8l0,2.8C70.2,119.2,70.2,119.2,70.1,119.2z"/>
	<path class="st0" d="M83.8,128c-1.3,1.3-3,2-4.9,2s-3.6-0.7-4.9-2c-1.3-1.3-2-2.9-2-4.8c0-1.9,0.7-3.5,2-4.8c1.3-1.3,3-2,4.9-2
		s3.6,0.7,4.9,2s2,2.9,2,4.8C85.7,125.1,85.1,126.7,83.8,128z M75.9,126.3c0.8,0.8,1.8,1.2,3,1.2c1.2,0,2.2-0.4,3-1.2
		c0.8-0.8,1.2-1.8,1.2-3.1c0-1.3-0.4-2.3-1.2-3.1c-0.8-0.8-1.8-1.2-3-1.2c-1.2,0-2.2,0.4-3,1.2c-0.8,0.8-1.2,1.8-1.2,3.1
		C74.7,124.5,75.1,125.5,75.9,126.3z"/>
	<path class="st0" d="M88.9,130.4v-13.8h2.8v13.9c0,1.4-0.4,2.5-1.2,3.3c-0.8,0.8-1.8,1.2-3,1.2c-1.2,0-2.3-0.4-3.2-1.3l1.3-2.1
		c0.6,0.5,1.1,0.8,1.7,0.8c0.6,0,1-0.2,1.3-0.5C88.7,131.5,88.9,131,88.9,130.4z M89,114c-0.3-0.3-0.5-0.8-0.5-1.2
		c0-0.5,0.2-0.9,0.5-1.2c0.3-0.3,0.8-0.5,1.2-0.5c0.5,0,0.9,0.2,1.2,0.5c0.3,0.3,0.5,0.8,0.5,1.2c0,0.5-0.2,0.9-0.5,1.2
		c-0.3,0.3-0.8,0.5-1.2,0.5C89.8,114.5,89.3,114.3,89,114z"/>
	<path class="st0" d="M107.9,124.4H97.6c0.1,1,0.5,1.7,1.3,2.3c0.8,0.6,1.7,0.9,2.8,0.9c1.6,0,2.9-0.5,3.8-1.6l1.6,1.7
		c-1.4,1.5-3.3,2.2-5.5,2.2c-1.8,0-3.4-0.6-4.7-1.8c-1.3-1.2-1.9-2.9-1.9-4.9c0-2.1,0.7-3.7,2-4.9c1.3-1.2,2.9-1.8,4.7-1.8
		c1.8,0,3.3,0.5,4.6,1.6c1.3,1.1,1.9,2.6,1.9,4.5V124.4z M97.6,122.2h7.5c0-1.1-0.3-2-1-2.5c-0.7-0.6-1.5-0.9-2.6-0.9
		c-1,0-1.9,0.3-2.7,0.9C98,120.3,97.6,121.2,97.6,122.2z"/>
	<path class="st0" d="M113.7,129.8h-2.8v-18.3h2.8v10.8l5.3-5.6h3.6l-5,5.2l5.4,7.9h-3.4l-3.9-5.8l-2,2V129.8z"/>
	<path class="st0" d="M128.7,118.8v6.7c0,0.6,0.2,1.1,0.5,1.5c0.3,0.4,0.8,0.6,1.4,0.6c0.6,0,1.2-0.3,1.7-0.9l1.1,2
		c-1,0.9-2,1.3-3.2,1.3c-1.2,0-2.2-0.4-3-1.2c-0.8-0.8-1.2-1.9-1.2-3.3v-6.6h-1.7v-2.2h1.7v-4.1h2.8v4.1h3.5v2.2H128.7z"/>
</g>
</svg>
