<svg id="Layer_1" data-name="Layer 1" xmlns="http://www.w3.org/2000/svg" viewBox="0 0 91 94"><defs><style>.cls-1{fill:#fff;}</style></defs><rect x="-0.27" y="0.39" width="71" height="28"/><path class="cls-1" d="M9,7.64a6.24,6.24,0,0,1,4.52,1.83,6.48,6.48,0,0,1,1.87,4.86,6.76,6.76,0,0,1-1.86,4.94,5.88,5.88,0,0,1-4.34,1.9A5.9,5.9,0,0,1,4.68,19v6.76H1.91V7.84H4.68v2.3A4.91,4.91,0,0,1,9,7.64ZM4.63,14.43a4.3,4.3,0,0,0,1.14,3.08A3.66,3.66,0,0,0,8.53,18.7a3.92,3.92,0,0,0,2.84-1.18,4.11,4.11,0,0,0,1.21-3.08,4.37,4.37,0,0,0-1.19-3.13,3.77,3.77,0,0,0-2.83-1.25,3.61,3.61,0,0,0-2.79,1.25A4.44,4.44,0,0,0,4.63,14.43Z"/><path class="cls-1" d="M29.15,21H26.63V19.22a5.4,5.4,0,0,1-4.37,2A5,5,0,0,1,18.86,20a3.89,3.89,0,0,1-1.34-3.1A3.25,3.25,0,0,1,19,14a6.88,6.88,0,0,1,3.88-1h3.58v-.49c0-1.75-1-2.62-2.92-2.62a6.81,6.81,0,0,0-3.8,1.33L18.46,9.54a8.52,8.52,0,0,1,5.43-1.9,5.86,5.86,0,0,1,3.79,1.18,4.43,4.43,0,0,1,1.47,3.69Zm-2.77-4.88V15H23.27c-2,0-3,.62-3,1.87A1.68,1.68,0,0,0,21,18.32a3.62,3.62,0,0,0,2.07.51,3.76,3.76,0,0,0,2.3-.74A2.38,2.38,0,0,0,26.38,16.09Z"/><path class="cls-1" d="M35.76,13.86V21H33V7.84h2.76v2.39a5,5,0,0,1,1.84-1.9A5.24,5.24,0,0,1,43.72,9a5.27,5.27,0,0,1,1.37,3.93v8H42.33v-7.2q0-3.63-3-3.63a3.6,3.6,0,0,0-2.5.95A3.55,3.55,0,0,0,35.76,13.86Z"/><path class="cls-1" d="M49.12,5.22A1.65,1.65,0,0,1,48.6,4a1.76,1.76,0,0,1,1.75-1.75A1.76,1.76,0,0,1,52.11,4a1.69,1.69,0,0,1-.52,1.23,1.69,1.69,0,0,1-1.24.52A1.66,1.66,0,0,1,49.12,5.22ZM51.71,21H49V7.84h2.76Z"/><path class="cls-1" d="M67.93,15.62H57.64a3,3,0,0,0,1.3,2.31,4.63,4.63,0,0,0,2.77.87,4.58,4.58,0,0,0,3.75-1.55L67,19a7.32,7.32,0,0,1-5.53,2.2,6.56,6.56,0,0,1-4.7-1.84,6.48,6.48,0,0,1-1.94-4.93,6.38,6.38,0,0,1,2-4.93A6.59,6.59,0,0,1,61.5,7.64a6.71,6.71,0,0,1,4.55,1.62,5.55,5.55,0,0,1,1.88,4.46ZM57.64,13.44h7.53a3.17,3.17,0,0,0-1-2.54A3.8,3.8,0,0,0,61.57,10a4.33,4.33,0,0,0-2.72.93A3,3,0,0,0,57.64,13.44Z"/><rect x="-0.27" y="33.39" width="85" height="28"/><path class="cls-1" d="M4.68,54H1.91V35.64H4.68V46.4L10,40.82h3.56L8.58,46,13.94,54H10.58L6.68,48.2l-2,2Z"/><path class="cls-1" d="M26.63,52.19a6.73,6.73,0,0,1-4.94,2,6.72,6.72,0,0,1-4.94-2,6.83,6.83,0,0,1,0-9.6,6.72,6.72,0,0,1,4.94-2,6.74,6.74,0,0,1,4.94,2,6.83,6.83,0,0,1,0,9.6Zm-7.92-1.7a4,4,0,0,0,3,1.19,4,4,0,0,0,3-1.19,4.66,4.66,0,0,0,0-6.2,4,4,0,0,0-3-1.2,4,4,0,0,0-3,1.2,4.69,4.69,0,0,0,0,6.2Z"/><path class="cls-1" d="M34.5,54H31.74V35.64H34.5Z"/><path class="cls-1" d="M50.72,48.6H40.43a3,3,0,0,0,1.31,2.31,5.1,5.1,0,0,0,6.51-.68L49.83,52a7.31,7.31,0,0,1-5.53,2.2,6.56,6.56,0,0,1-4.7-1.84,6.48,6.48,0,0,1-1.94-4.94,6.37,6.37,0,0,1,2-4.92,6.63,6.63,0,0,1,4.65-1.83,6.73,6.73,0,0,1,4.56,1.62,5.57,5.57,0,0,1,1.87,4.46ZM40.43,46.42H48a3.17,3.17,0,0,0-1-2.54A3.79,3.79,0,0,0,44.37,43a4.34,4.34,0,0,0-2.73.93A3,3,0,0,0,40.43,46.42Z"/><path class="cls-1" d="M65.91,40.82V52.28A6.75,6.75,0,0,1,64,57.5a6.89,6.89,0,0,1-4.85,1.74,8.57,8.57,0,0,1-5.36-1.85l1.31-2.1A6.4,6.4,0,0,0,59,56.74a4.53,4.53,0,0,0,3.11-1,4.11,4.11,0,0,0,1.15-3.23V50.82a4.76,4.76,0,0,1-1.77,1.85,4.91,4.91,0,0,1-2.58.69,5.61,5.61,0,0,1-4.3-1.82,7,7,0,0,1,0-9.09,5.57,5.57,0,0,1,4.29-1.83,5.08,5.08,0,0,1,4.23,2.15v-2ZM55.66,46.88a4.14,4.14,0,0,0,1,2.79,3.36,3.36,0,0,0,2.69,1.17,3.54,3.54,0,0,0,2.74-1.13,4,4,0,0,0,1-2.83A4.08,4.08,0,0,0,62.08,44a3.54,3.54,0,0,0-2.74-1.18,3.32,3.32,0,0,0-2.68,1.21A4.3,4.3,0,0,0,55.66,46.88Z"/><path class="cls-1" d="M80.89,52.19a7.19,7.19,0,0,1-9.87,0,6.81,6.81,0,0,1,0-9.6,7.17,7.17,0,0,1,9.87,0,6.81,6.81,0,0,1,0,9.6ZM73,50.49a4.31,4.31,0,0,0,6,0,4.69,4.69,0,0,0,0-6.2,4.29,4.29,0,0,0-6,0,4.69,4.69,0,0,0,0,6.2Z"/><rect x="-0.27" y="66.39" width="91" height="28"/><path class="cls-1" d="M8.67,73.42a6.24,6.24,0,0,1,4.52,1.83,6.49,6.49,0,0,1,1.88,4.86,6.77,6.77,0,0,1-1.87,4.94A5.88,5.88,0,0,1,8.86,87,5.9,5.9,0,0,1,4.4,84.78v6.76H1.63V73.62H4.4v2.29A4.92,4.92,0,0,1,8.67,73.42ZM4.35,80.21a4.25,4.25,0,0,0,1.14,3.07,3.64,3.64,0,0,0,2.76,1.2,3.92,3.92,0,0,0,2.84-1.18,4.11,4.11,0,0,0,1.21-3.08,4.35,4.35,0,0,0-1.18-3.13,3.79,3.79,0,0,0-2.84-1.25,3.61,3.61,0,0,0-2.79,1.25A4.44,4.44,0,0,0,4.35,80.21Z"/><path class="cls-1" d="M25.11,76.21A3.69,3.69,0,0,0,22,77.54a5.71,5.71,0,0,0-1,3.58v5.63H18.23V73.62H21v2.64a5.7,5.7,0,0,1,1.82-2,4.35,4.35,0,0,1,2.43-.82l0,2.79Z"/><path class="cls-1" d="M38.77,85a6.73,6.73,0,0,1-4.94,2,6.72,6.72,0,0,1-4.94-2,6.84,6.84,0,0,1,0-9.61,6.76,6.76,0,0,1,4.94-2,6.77,6.77,0,0,1,4.94,2,6.84,6.84,0,0,1,0,9.61Zm-7.92-1.71a4.29,4.29,0,0,0,5.95,0,4.65,4.65,0,0,0,0-6.19,4.29,4.29,0,0,0-5.95,0,4.68,4.68,0,0,0,0,6.19Z"/><path class="cls-1" d="M43.88,87.37V73.62h2.76V87.47a4.39,4.39,0,0,1-1.24,3.29,4.16,4.16,0,0,1-3,1.23,4.73,4.73,0,0,1-3.22-1.31l1.29-2.08a2.41,2.41,0,0,0,1.69.82,1.57,1.57,0,0,0,1.29-.54A2.32,2.32,0,0,0,43.88,87.37ZM44,71a1.7,1.7,0,0,1-.52-1.23,1.75,1.75,0,0,1,3-1.24A1.69,1.69,0,0,1,47,69.77a1.78,1.78,0,0,1-1.75,1.75A1.69,1.69,0,0,1,44,71Z"/><path class="cls-1" d="M62.86,81.4H52.57a3,3,0,0,0,1.31,2.3,4.52,4.52,0,0,0,2.76.88A4.58,4.58,0,0,0,60.39,83L62,84.75A7.32,7.32,0,0,1,56.44,87a6.47,6.47,0,0,1-6.64-6.78,6.37,6.37,0,0,1,2-4.92,6.61,6.61,0,0,1,4.65-1.83A6.73,6.73,0,0,1,61,75a5.56,5.56,0,0,1,1.87,4.45ZM52.57,79.22H60.1a3.17,3.17,0,0,0-1-2.54,3.8,3.8,0,0,0-2.56-.89,4.33,4.33,0,0,0-2.72.93A3,3,0,0,0,52.57,79.22Z"/><path class="cls-1" d="M68.66,86.75H65.9V68.43h2.76V79.2L74,73.62h3.55l-5,5.21,5.36,7.92H74.56L70.66,81l-2,2Z"/><path class="cls-1" d="M83.65,75.84v6.67A2.16,2.16,0,0,0,84.14,84a1.76,1.76,0,0,0,1.39.56,2.34,2.34,0,0,0,1.7-.87l1.14,2A4.76,4.76,0,0,1,85.14,87a4.17,4.17,0,0,1-3-1.22,4.43,4.43,0,0,1-1.25-3.3V75.84H79.23V73.62h1.65V69.5h2.77v4.12h3.46v2.22Z"/></svg>